<svg width="308" height="90" viewBox="0 0 308 90" fill="none" xmlns="http://www.w3.org/2000/svg">
<line x1="2.5" y1="82.5" x2="2.5" y2="87.5" stroke="black" stroke-width="5" stroke-linecap="round"/>
<line x1="12.5" y1="77.5" x2="12.5" y2="87.5" stroke="black" stroke-width="5" stroke-linecap="round"/>
<line x1="22.5" y1="60.5" x2="22.5" y2="87.5" stroke="black" stroke-width="5" stroke-linecap="round"/>
<line x1="32.5" y1="37.5" x2="32.5" y2="87.5" stroke="black" stroke-width="5" stroke-linecap="round"/>
<line x1="41.5" y1="64.5" x2="41.5" y2="87.5" stroke="black" stroke-width="5" stroke-linecap="round"/>
<line x1="50.5" y1="70.5" x2="50.5" y2="87.5" stroke="black" stroke-width="5" stroke-linecap="round"/>
<line x1="59.5" y1="76.5" x2="59.5" y2="87.5" stroke="black" stroke-width="5" stroke-linecap="round"/>
<line x1="68.5" y1="76.5" x2="68.5" y2="87.5" stroke="black" stroke-width="5" stroke-linecap="round"/>
<line x1="77.5" y1="75.5" x2="77.5" y2="87.5" stroke="black" stroke-width="5" stroke-linecap="round"/>
<line x1="86.5" y1="67.5" x2="86.5" y2="87.5" stroke="black" stroke-width="5" stroke-linecap="round"/>
<line x1="95.5" y1="57.5" x2="95.5" y2="87.5" stroke="black" stroke-width="5" stroke-linecap="round"/>
<line x1="104.5" y1="64.5" x2="104.5" y2="87.5" stroke="black" stroke-width="5" stroke-linecap="round"/>
<line x1="113.5" y1="66.5" x2="113.5" y2="87.5" stroke="black" stroke-width="5" stroke-linecap="round"/>
<line x1="122.5" y1="82.5" x2="122.5" y2="87.5" stroke="black" stroke-width="5" stroke-linecap="round"/>
<line x1="131.5" y1="64.5" x2="131.5" y2="87.5" stroke="black" stroke-width="5" stroke-linecap="round"/>
<line x1="140.5" y1="56.5" x2="140.5" y2="87.5" stroke="black" stroke-width="5" stroke-linecap="round"/>
<line x1="149.5" y1="60.5" x2="149.5" y2="87.5" stroke="black" stroke-width="5" stroke-linecap="round"/>
<line x1="158.5" y1="57.5" x2="158.5" y2="87.5" stroke="black" stroke-width="5" stroke-linecap="round"/>
<line x1="167.5" y1="47.5" x2="167.5" y2="87.5" stroke="black" stroke-width="5" stroke-linecap="round"/>
<line x1="176.5" y1="32.5" x2="176.5" y2="87.5" stroke="black" stroke-width="5" stroke-linecap="round"/>
<line x1="185.5" y1="14.5" x2="185.5" y2="87.5" stroke="black" stroke-width="5" stroke-linecap="round"/>
<line x1="195.5" y1="6.5" x2="195.5" y2="87.5" stroke="black" stroke-width="5" stroke-linecap="round"/>
<line x1="205.5" y1="12.5" x2="205.5" y2="87.5" stroke="black" stroke-width="5" stroke-linecap="round"/>
<line x1="215.5" y1="2.5" x2="215.5" y2="87.5" stroke="black" stroke-width="5" stroke-linecap="round"/>
<line x1="225.5" y1="10.5" x2="225.5" y2="87.5" stroke="black" stroke-width="5" stroke-linecap="round"/>
<line x1="235.5" y1="37.5" x2="235.5" y2="87.5" stroke="black" stroke-width="5" stroke-linecap="round"/>
<line x1="245.5" y1="42.5" x2="245.5" y2="87.5" stroke="black" stroke-width="5" stroke-linecap="round"/>
<line x1="295.5" y1="42.5" x2="295.5" y2="87.5" stroke="black" stroke-width="5" stroke-linecap="round"/>
<line x1="305.5" y1="32.5" x2="305.5" y2="87.5" stroke="black" stroke-width="5" stroke-linecap="round"/>
<line x1="255.5" y1="52.5" x2="255.5" y2="87.5" stroke="black" stroke-width="5" stroke-linecap="round"/>
<line x1="265.5" y1="37.5" x2="265.5" y2="87.5" stroke="black" stroke-width="5" stroke-linecap="round"/>
<line x1="275.5" y1="27.5" x2="275.5" y2="87.5" stroke="black" stroke-width="5" stroke-linecap="round"/>
<line x1="285.5" y1="32.5" x2="285.5" y2="87.5" stroke="black" stroke-width="5" stroke-linecap="round"/>
</svg>
