<svg width="50" height="50" viewBox="0 0 50 50" fill="none" xmlns="http://www.w3.org/2000/svg">
<title>Ellones Logo</title>
<rect width="50" height="50" rx="6" fill="black"/>
<path d="M11.8 12.9C11.8 11.7954 12.6955 10.9 13.8 10.9H18.1V39.1H13.8C12.6955 39.1 11.8 38.2046 11.8 37.1V12.9Z" fill="white"/>
<path d="M18.1 32.8H38.3V37.1C38.3 38.2046 37.4045 39.1 36.3 39.1H18.1V32.8Z" fill="white"/>
<path d="M28 10.9H32.3C33.4046 10.9 34.3 11.7954 34.3 12.9V24.5C34.3 25.6046 33.4046 26.5 32.3 26.5H28V10.9Z" fill="white"/>
<path d="M24.4 12.9C24.4 11.7954 25.2955 10.9 26.4 10.9H28V17.2H24.4V12.9Z" fill="white"/>
</svg>
