<svg width="100" height="100" viewBox="0 0 100 100" fill="none" xmlns="http://www.w3.org/2000/svg">
<title>Cardano Logo</title>
<path d="M37.0987 49.3102C36.9812 51.3554 38.5526 53.1064 40.594 53.2241C40.6675 53.2241 40.7409 53.2241 40.8143 53.2241C42.8704 53.2241 44.5299 51.5614 44.5153 49.5015C44.5153 47.4415 42.8557 45.7788 40.7996 45.7935C38.8317 45.7935 37.2015 47.3385 37.0987 49.3102Z" fill="black"/>
<path d="M23.2642 48.3538C22.6034 48.3096 22.0306 48.8246 22.0012 49.4867C21.9719 50.1489 22.4712 50.7227 23.1321 50.7521C23.793 50.7963 24.351 50.2813 24.3951 49.6192C24.4392 48.957 23.9251 48.3979 23.2642 48.3538Z" fill="black"/>
<path d="M36.8637 27.7395C37.4512 27.4452 37.6862 26.7095 37.3924 26.121C37.0987 25.5324 36.3644 25.297 35.7769 25.5913C35.1895 25.8856 34.9545 26.6065 35.2482 27.1951C35.542 27.7984 36.2616 28.0485 36.8637 27.7395Z" fill="black"/>
<path d="M40.6234 34.3167C41.5339 33.8605 41.9011 32.7423 41.4458 31.83C40.9906 30.9177 39.8744 30.5499 38.9639 31.006C38.0533 31.4622 37.6862 32.5804 38.1414 33.4927C38.5967 34.4049 39.7129 34.7728 40.6234 34.3167Z" fill="black"/>
<path d="M27.9639 38.8338C28.6688 39.29 29.6087 39.0987 30.0787 38.3924C30.5339 37.6862 30.343 36.7445 29.6381 36.2736C28.9331 35.8175 27.9932 36.0088 27.5233 36.715C27.0533 37.4213 27.2589 38.3777 27.9639 38.8338Z" fill="black"/>
<path d="M30.2108 47.6916C29.1828 47.6328 28.3163 48.4126 28.2576 49.4426C28.1988 50.4726 28.9772 51.3407 30.0052 51.3996C31.0333 51.4584 31.8998 50.6786 31.9585 49.6486C32.0173 48.6333 31.2389 47.7505 30.2108 47.6916Z" fill="black"/>
<path d="M28.1695 60.1544C27.4205 60.5369 27.1121 61.4492 27.4939 62.2143C27.8757 62.9647 28.7863 63.2737 29.55 62.8912C30.299 62.5086 30.6074 61.5963 30.2255 60.8312C29.8437 60.0808 28.9185 59.7718 28.1695 60.1544Z" fill="black"/>
<path d="M35.3657 43.8513C36.3791 44.5134 37.7302 44.2339 38.3764 43.2186C39.0373 42.2033 38.7582 40.8497 37.7449 40.2022C36.7315 39.5401 35.3804 39.8197 34.7342 40.8349C34.0733 41.8355 34.3524 43.1892 35.3657 43.8513Z" fill="black"/>
<path d="M58.2029 34.1695C59.0547 34.7286 60.2149 34.4932 60.7729 33.6398C61.331 32.7864 61.096 31.624 60.2442 31.0649C59.3924 30.5057 58.2322 30.7412 57.6741 31.5946C57.1014 32.4627 57.3364 33.6104 58.2029 34.1695Z" fill="black"/>
<path d="M61.9919 27.6218C62.55 27.9897 63.2843 27.8278 63.6515 27.2687C64.0186 26.7095 63.8571 25.9738 63.299 25.606C62.7409 25.2381 62.0066 25.4 61.6394 25.9444C61.287 26.5035 61.4485 27.254 61.9919 27.6218Z" fill="black"/>
<path d="M58.4819 45.7641C56.4405 45.6464 54.6782 47.2208 54.5753 49.266C54.4579 51.3113 56.0293 53.0769 58.0707 53.1799C58.1441 53.1799 58.2175 53.1799 58.2763 53.1799C60.3177 53.1799 61.9772 51.5173 61.9772 49.4573C61.9919 47.5004 60.4498 45.8671 58.4819 45.7641Z" fill="black"/>
<path d="M41.8424 43.5864C42.4739 44.8371 43.7516 45.6317 45.1615 45.6317C47.2028 45.6317 48.8624 43.969 48.8624 41.9091C48.8624 41.3352 48.7302 40.7614 48.4659 40.2317C47.5406 38.3924 45.3083 37.6567 43.4872 38.5837C41.6514 39.5254 40.9171 41.7619 41.8424 43.5864Z" fill="black"/>
<path d="M70.9065 38.8338C71.6555 38.4513 71.9492 37.5243 71.5674 36.7739C71.1855 36.0235 70.2603 35.7292 69.5113 36.1118C68.7623 36.4943 68.4686 37.4066 68.8357 38.157C69.2322 38.9074 70.1428 39.2164 70.9065 38.8338Z" fill="black"/>
<path d="M61.5073 40.011C60.4352 40.5554 59.9946 41.8649 60.538 42.939C61.0814 44.0132 62.3884 44.4546 63.4605 43.9102C64.5326 43.3657 64.9732 42.0562 64.4298 40.9821C63.8864 39.908 62.5794 39.4813 61.5073 40.011Z" fill="black"/>
<path d="M49.3911 27.0627C50.2282 27.1068 50.9478 26.4594 51.0066 25.6207C51.0653 24.782 50.4044 24.061 49.5673 24.0022C48.7302 23.958 48.0106 24.5907 47.9518 25.4294C47.9078 26.2828 48.554 27.0038 49.3911 27.0627Z" fill="black"/>
<path d="M49.3764 36.6709C50.5807 36.7445 51.6087 35.8175 51.6675 34.6109C51.7409 33.4044 50.8157 32.3744 49.6114 32.3156C48.4071 32.242 47.3791 33.169 47.3203 34.3755C47.2616 35.5821 48.1721 36.612 49.3764 36.6709Z" fill="black"/>
<path d="M37.5687 58.9772C38.6408 58.4328 39.0813 57.1233 38.538 56.0492C37.9946 54.975 36.6875 54.5336 35.6154 55.078C34.5433 55.6225 34.1027 56.932 34.6461 58.0061C35.1895 59.0802 36.4966 59.5217 37.5687 58.9772Z" fill="black"/>
<path d="M50.7863 39.8638C49.6701 41.5854 50.1401 43.8807 51.8584 44.999C53.5767 46.1172 55.8677 45.6464 56.9839 43.9249C58.1 42.2033 57.6301 39.908 55.9118 38.7897C55.3097 38.3924 54.6047 38.1864 53.8851 38.1864C52.6368 38.1864 51.4765 38.8191 50.7863 39.8638Z" fill="black"/>
<path d="M57.2336 55.4018C56.3083 53.5625 54.076 52.8268 52.2549 53.7538C50.4191 54.6808 49.6848 56.9173 50.6101 58.7418C51.5353 60.5811 53.7676 61.3168 55.5887 60.3898C57.4098 59.4775 58.1588 57.2704 57.2482 55.4312C57.2482 55.4165 57.2482 55.4165 57.2336 55.4018Z" fill="black"/>
<path d="M63.7102 55.1369C62.6968 54.4748 61.3457 54.7543 60.6995 55.7696C60.0386 56.7849 60.3177 58.1386 61.331 58.786C62.3444 59.4481 63.6955 59.1685 64.3417 58.1533C65.0026 57.1527 64.7235 55.799 63.7102 55.1369Z" fill="black"/>
<path d="M70.8183 49.5603C70.8771 48.5303 70.0987 47.6622 69.0707 47.6034C68.0426 47.5445 67.1762 48.3243 67.1174 49.3543C67.0587 50.3843 67.837 51.2524 68.8651 51.3113C69.8784 51.3701 70.7596 50.5756 70.8183 49.5603Z" fill="black"/>
<path d="M75.9438 48.2361C75.283 48.1919 74.7102 48.7069 74.6808 49.369C74.6515 50.0312 75.1508 50.605 75.8117 50.6344C76.4725 50.6786 77.0306 50.1636 77.0747 49.5015C77.1041 48.8393 76.6047 48.2802 75.9438 48.2361Z" fill="black"/>
<path d="M71.1121 60.1544C70.4071 59.6982 69.4672 59.8895 68.9973 60.5958C68.542 61.3021 68.7329 62.2437 69.4378 62.7146C70.1428 63.1707 71.0827 62.9794 71.5527 62.2732C72.0226 61.5669 71.817 60.6105 71.1121 60.1544Z" fill="black"/>
<path d="M37.0693 71.3664C36.5113 70.9985 35.7769 71.1604 35.4098 71.7048C35.0426 72.2639 35.2042 72.9996 35.7476 73.3675C36.3056 73.7353 37.04 73.5735 37.4071 73.0291C37.789 72.4847 37.6274 71.7342 37.0693 71.3664Z" fill="black"/>
<path d="M62.2122 71.2487C61.6247 71.543 61.3898 72.2787 61.6835 72.8672C61.9772 73.4558 62.7115 73.6912 63.299 73.3969C63.8864 73.1026 64.1214 72.3817 63.8277 71.7931C63.534 71.1898 62.8143 70.9397 62.2122 71.2487Z" fill="black"/>
<path d="M48.2896 59.1244C49.4058 57.4028 48.9358 55.1075 47.2175 53.9745C45.4992 52.8562 43.2082 53.3271 42.0773 55.0486C40.9465 56.7702 41.4311 59.0655 43.1494 60.1985C43.7516 60.5958 44.4565 60.8018 45.1761 60.8018C46.4392 60.8165 47.5994 60.1838 48.2896 59.1244Z" fill="black"/>
<path d="M40.8731 64.8187C40.0213 64.2595 38.8611 64.495 38.303 65.3484C37.7449 66.2018 37.9799 67.3642 38.8317 67.9233C39.6835 68.4825 40.8437 68.247 41.4018 67.3936C41.9745 66.5402 41.7396 65.3778 40.8731 64.8187Z" fill="black"/>
<path d="M49.5233 71.9255C48.6862 71.8814 47.9665 72.5288 47.9078 73.3675C47.849 74.2062 48.5099 74.9272 49.347 74.986C50.1842 75.0302 50.9038 74.3975 50.9625 73.5588C51.0066 72.7054 50.3604 71.9844 49.5233 71.9255Z" fill="black"/>
<path d="M49.538 62.3173C48.3337 62.2437 47.3057 63.1707 47.2469 64.3773C47.1735 65.5838 48.0987 66.6138 49.303 66.6726C50.5073 66.7315 51.5353 65.8192 51.594 64.6127C51.6675 63.4209 50.7422 62.3762 49.538 62.3173Z" fill="black"/>
<path d="M58.4525 64.6715C57.542 65.1424 57.1748 66.2607 57.6448 67.1729C58.1147 68.0852 59.2309 68.453 60.1414 67.9822C61.052 67.5261 61.4191 66.4078 60.9639 65.4955C60.4939 64.5833 59.3778 64.2007 58.4525 64.6715Z" fill="black"/>
</svg>
