<svg width="100" height="100" viewBox="0 0 100 100" fill="none" xmlns="http://www.w3.org/2000/svg">
<title>Cosmos Logo</title>
<path d="M49.9335 68.4833C60.4083 68.4833 68.8999 59.9917 68.8999 49.5168C68.8999 39.042 60.4083 30.5504 49.9335 30.5504C39.4586 30.5504 30.967 39.042 30.967 49.5168C30.967 59.9917 39.4586 68.4833 49.9335 68.4833Z" fill="black" fill-opacity="0.5"/>
<path d="M50.0003 21C46.472 21 43.611 33.7975 43.611 49.5842C43.611 65.3709 46.472 78.1685 50.0003 78.1685C53.5287 78.1685 56.3897 65.3709 56.3897 49.5842C56.3897 33.7975 53.5287 21 50.0003 21ZM50.4415 76.5553C50.038 77.0935 49.6345 76.6897 49.6345 76.6897C48.0096 74.807 47.1971 71.3092 47.1971 71.3092C44.3549 62.1624 45.0314 42.5234 45.0314 42.5234C46.3671 26.932 48.7969 23.2489 49.6238 22.4312C49.7082 22.3477 49.8194 22.2967 49.9377 22.2871C50.0561 22.2776 50.174 22.3101 50.2707 22.3789C51.4705 23.229 52.4767 26.7843 52.4767 26.7843C55.4481 37.8144 55.179 48.1719 55.179 48.1719C55.4481 57.1843 53.69 67.2728 53.69 67.2728C52.3368 74.9398 50.4415 76.5553 50.4415 76.5553Z" fill="black"/>
<path d="M74.7941 35.3594C73.0374 32.2978 60.5142 36.1852 46.8142 44.041C33.1143 51.8968 23.4505 60.7476 25.2059 63.8079C26.9613 66.8682 39.4858 62.9821 53.1858 55.1263C66.8858 47.2705 76.5495 38.4197 74.7941 35.3594ZM26.8266 63.388C26.1541 63.3032 26.306 62.7504 26.306 62.7504C27.131 60.4046 29.7564 57.9591 29.7564 57.9591C36.2789 50.9416 53.6515 41.7556 53.6515 41.7556C67.8386 35.1549 72.2453 35.4334 73.3632 35.7412C73.478 35.7732 73.5777 35.8448 73.6447 35.9433C73.7117 36.0418 73.7417 36.1609 73.7293 36.2793C73.5949 37.7437 71.0053 40.3848 71.0053 40.3848C62.922 48.4543 53.8034 53.3761 53.8034 53.3761C46.1199 58.0961 36.4943 61.5894 36.4943 61.5894C29.1701 64.2287 26.8266 63.388 26.8266 63.388Z" fill="black"/>
<path d="M74.7323 63.9101C76.5026 60.8566 66.8632 51.9653 53.2113 44.0504C39.5595 36.1355 27.0378 32.2 25.2691 35.2587C23.5003 38.3174 33.1382 47.2035 46.7979 55.1184C60.4576 63.0333 72.9636 66.9691 74.7323 63.9101ZM26.4421 36.4385C26.1806 35.8185 26.7327 35.6692 26.7327 35.6692C29.1766 35.2077 32.6095 36.2594 32.6095 36.2594C41.9488 38.3861 58.602 48.8177 58.602 48.8177C71.4239 57.7898 73.3903 61.7418 73.685 62.8636C73.715 62.9787 73.7034 63.1006 73.6522 63.2079C73.601 63.3152 73.5135 63.401 73.4053 63.4501C72.0682 64.0623 68.4873 63.1502 68.4873 63.1502C57.4504 60.1909 48.6237 54.7688 48.6237 54.7688C40.6928 50.4912 32.8506 43.9094 32.8506 43.9094C26.8916 38.8921 26.444 36.4453 26.444 36.4453L26.4421 36.4385Z" fill="black"/>
<path d="M49.9339 52.8793C51.7911 52.8793 53.2967 51.3738 53.2967 49.5165C53.2967 47.6593 51.7911 46.1537 49.9339 46.1537C48.0767 46.1537 46.5711 47.6593 46.5711 49.5165C46.5711 51.3738 48.0767 52.8793 49.9339 52.8793Z" fill="black"/>
<path d="M63.7211 38.6211C64.7983 38.6211 65.6715 37.7177 65.6715 36.6034C65.6715 35.489 64.7983 34.5857 63.7211 34.5857C62.6438 34.5857 61.7706 35.489 61.7706 36.6034C61.7706 37.7177 62.6438 38.6211 63.7211 38.6211Z" fill="black"/>
<path d="M31.7067 45.4814C32.784 45.4814 33.6572 44.5781 33.6572 43.4637C33.6572 42.3494 32.784 41.446 31.7067 41.446C30.6295 41.446 29.7563 42.3494 29.7563 43.4637C29.7563 44.5781 30.6295 45.4814 31.7067 45.4814Z" fill="black"/>
<path d="M45.9651 70.232C47.0423 70.232 47.9155 69.3287 47.9155 68.2144C47.9155 67.1 47.0423 66.1967 45.9651 66.1967C44.8878 66.1967 44.0146 67.1 44.0146 68.2144C44.0146 69.3287 44.8878 70.232 45.9651 70.232Z" fill="black"/>
</svg>
