<svg width="100" height="100" viewBox="0 0 100 100" fill="none" xmlns="http://www.w3.org/2000/svg">
<title>Avalanche Logo</title>
<path d="M30.6864 68.5016H38.17C39.932 68.5016 40.8129 68.5016 41.5992 68.2839C42.4612 68.0277 43.2475 67.5733 43.9011 66.9479C44.5014 66.376 44.9346 65.618 45.789 64.1226L45.8146 64.0778L55.5206 46.9204C56.3827 45.4142 56.8089 44.6563 56.9984 43.8606C57.2068 42.9985 57.2068 42.0892 56.9984 41.2271C56.8104 40.4374 56.3797 39.685 55.5305 38.2012L51.7125 31.5364C50.9263 30.1533 50.5284 29.4618 50.0263 29.206C49.4864 28.9313 48.8422 28.9313 48.3022 29.206C47.8002 29.4618 47.4024 30.1533 46.6161 31.5364L28.1382 64.1062C27.3614 65.4703 26.973 66.1526 27.0015 66.7112C27.0394 67.3176 27.3519 67.867 27.8635 68.1987C28.3371 68.5016 29.1139 68.5016 30.6864 68.5016Z" fill="black"/>
<path d="M67.7916 68.5016H57.0685C55.4865 68.5016 54.6908 68.5016 54.2266 68.1987C53.7151 67.867 53.4025 67.3084 53.3646 66.702C53.3364 66.1475 53.7279 65.4717 54.5112 64.1194L54.5298 64.0875L59.882 54.8988C60.6682 53.5441 61.066 52.8716 61.5587 52.6158C62.0984 52.341 62.7335 52.341 63.2732 52.6158C63.7622 52.8648 64.1431 53.5088 64.8971 54.784L64.8983 54.7858L64.9594 54.8893L70.3307 64.078L70.3411 64.096C70.3637 64.1351 70.3859 64.1736 70.4082 64.2115C71.1527 65.4963 71.5327 66.1521 71.5055 66.6927C71.4767 67.2986 71.1548 67.8578 70.6434 68.1895C70.1694 68.5016 69.3736 68.5016 67.7916 68.5016Z" fill="black"/>
</svg>
