<svg width="100" height="100" viewBox="0 0 100 100" fill="none" xmlns="http://www.w3.org/2000/svg">
<title>Binance Smart Chain Logo</title>
<path d="M33.7855 50L33.8119 59.6706L42.0289 64.5059V70.1676L29.0029 62.5279V47.1721L33.7855 50ZM33.7855 40.3294V45.9647L29 43.1339V37.4986L33.7855 34.6677L38.5944 37.4986L33.7855 40.3294ZM45.4606 37.4986L50.246 34.6677L55.055 37.4986L50.246 40.3294L45.4606 37.4986Z" fill="black"/>
<path d="M37.2431 57.6662V52.0045L42.0286 54.8353V60.4707L37.2431 57.6662ZM45.4602 66.5338L50.2457 69.3647L55.0546 66.5338V72.1692L50.2457 75L45.4602 72.1692V66.5338ZM61.9178 37.4986L66.7033 34.6677L71.5122 37.4986V43.1339L66.7033 45.9647V40.3294L61.9178 37.4986ZM66.7033 59.6706L66.7297 50L71.5152 47.1692V62.5249L58.4892 70.1647V64.503L66.7033 59.6706Z" fill="black"/>
<path d="M63.272 57.6663L58.4865 60.4707V54.8354L63.272 52.0046V57.6663Z" fill="black"/>
<path d="M63.2717 42.3338L63.2981 47.9955L55.0576 52.8308V62.5249L50.2721 65.3294L45.4866 62.5249V52.8308L37.2461 47.9955V42.3338L42.0521 39.503L50.2428 44.3617L58.4833 39.503L63.2922 42.3338H63.2717ZM37.2431 32.6662L50.2457 25L63.2717 32.6662L58.4862 35.497L50.2457 30.6383L42.0286 35.497L37.2431 32.6662Z" fill="black"/>
</svg>
