<svg width="100" height="100" viewBox="0 0 100 100" fill="none" xmlns="http://www.w3.org/2000/svg">
<title>Bitcoin Logo</title>
<path d="M68.3859 45.014C69.2074 39.5214 65.0257 36.5689 59.3076 34.5993L61.1626 27.1591L56.6335 26.0305L54.8277 33.2748C53.637 32.9779 52.4143 32.6981 51.199 32.4207L53.0179 25.1285L48.4916 24L46.6356 31.4378C45.6503 31.2135 44.6826 30.9917 43.7437 30.7581L43.7489 30.7347L37.5032 29.1751L36.2984 34.0124C36.2984 34.0124 39.6586 34.7827 39.5878 34.8301C41.4218 35.2878 41.7535 36.5019 41.6984 37.4642L39.5854 45.9404C39.7117 45.9724 39.8755 46.0188 40.0562 46.0915C39.9051 46.0539 39.7443 46.013 39.5775 45.973L36.6157 57.8469C36.3916 58.4041 35.8227 59.2404 34.5404 58.9228C34.5858 58.9886 31.2486 58.1013 31.2486 58.1013L29 63.2857L34.8939 64.755C35.9903 65.0299 37.0648 65.3176 38.1229 65.5881L36.2488 73.1137L40.7726 74.2422L42.6286 66.7966C43.8645 67.1321 45.0638 67.4415 46.238 67.7333L44.3882 75.1438L48.9175 76.2724L50.7915 68.7609C58.5145 70.2225 64.3217 69.6333 66.766 62.6478C68.7356 57.0236 66.6679 53.7796 62.6048 51.6642C65.5642 50.9817 67.7932 49.0353 68.3876 45.0146L68.3859 45.014ZM58.038 59.5244C56.6383 65.1485 47.169 62.1083 44.0989 61.3459L46.586 51.3759C49.6559 52.1423 59.5006 53.659 58.038 59.5244ZM59.4387 44.9325C58.1619 50.0482 50.2805 47.4492 47.7238 46.8119L49.9787 37.7696C52.5353 38.4069 60.7684 39.5964 59.4387 44.9325Z" fill="black"/>
</svg>
