<svg width="100" height="100" viewBox="0 0 100 100" fill="none" xmlns="http://www.w3.org/2000/svg">
<title>Polkadot Logo</title>
<path d="M49.941 36.2315C54.8001 36.2315 58.7391 33.9411 58.7391 31.1157C58.7391 28.2904 54.8001 26 49.941 26C45.082 26 41.143 28.2904 41.143 31.1157C41.143 33.9411 45.082 36.2315 49.941 36.2315Z" fill="black"/>
<path d="M49.941 74.7777C54.8001 74.7777 58.7391 72.4873 58.7391 69.6619C58.7391 66.8366 54.8001 64.5462 49.941 64.5462C45.082 64.5462 41.143 66.8366 41.143 69.6619C41.143 72.4873 45.082 74.7777 49.941 74.7777Z" fill="black"/>
<path d="M37.6804 43.3129C40.1099 39.1059 40.0941 34.5495 37.6451 33.1359C35.1962 31.7223 31.2414 33.9867 28.8119 38.1937C26.3824 42.4006 26.3981 46.957 28.8471 48.3706C31.2961 49.7843 35.2509 47.5198 37.6804 43.3129Z" fill="black"/>
<path d="M71.0664 62.5837C73.4959 58.3767 73.4815 53.8211 71.0342 52.4084C68.5869 50.9958 64.6334 53.261 62.2039 57.4679C59.7744 61.6749 59.7888 66.2305 62.2361 67.6432C64.6835 69.0558 68.6369 66.7906 71.0664 62.5837Z" fill="black"/>
<path d="M37.6464 67.642C40.0953 66.2284 40.1111 61.672 37.6816 57.465C35.2521 53.2581 31.2973 50.9936 28.8483 52.4073C26.3993 53.8209 26.3836 58.3773 28.8131 62.5842C31.2426 66.7912 35.1974 69.0556 37.6464 67.642Z" fill="black"/>
<path d="M71.0363 48.3718C73.4836 46.9591 73.498 42.4035 71.0685 38.1965C68.639 33.9896 64.6855 31.7244 62.2382 33.137C59.7909 34.5497 59.7765 39.1053 62.206 43.3123C64.6355 47.5192 68.589 49.7844 71.0363 48.3718Z" fill="black"/>
</svg>
