<svg width="100" height="100" viewBox="0 0 100 100" fill="none" xmlns="http://www.w3.org/2000/svg">
<title>Elrond Logo</title>
<path fill-rule="evenodd" clip-rule="evenodd" d="M63.0219 35.9439C62.8458 35.7678 62.7402 35.5917 62.7402 35.3452C62.7402 35.0988 62.8458 34.9227 63.0219 34.7466C63.374 34.4297 63.9374 34.4297 64.3247 34.7466C64.5008 34.9227 64.6064 35.0988 64.6064 35.3452C64.6064 35.5917 64.5008 35.7678 64.3247 35.9439C64.1487 36.0847 63.9022 36.1903 63.6909 36.1903C63.4444 36.2256 63.198 36.1551 63.0219 35.9439Z" fill="black"/>
<path fill-rule="evenodd" clip-rule="evenodd" d="M60.7683 38.3735C60.6275 38.1974 60.5218 38.0214 60.5218 37.7749C60.5218 37.5284 60.6275 37.3523 60.7683 37.1763C61.0852 36.8594 61.6486 36.8594 61.9655 37.1763C62.1064 37.3523 62.212 37.5284 62.212 37.7749C62.212 38.0214 62.1064 38.1974 61.9655 38.3735C61.7895 38.5143 61.6134 38.62 61.3669 38.62C61.1204 38.62 60.9444 38.5143 60.7683 38.3735Z" fill="black"/>
<path fill-rule="evenodd" clip-rule="evenodd" d="M58.3035 40.6975C58.1626 40.5566 58.057 40.3454 58.057 40.0989C58.057 39.8524 58.1626 39.6763 58.3035 39.5003C58.6204 39.1834 59.1838 39.1834 59.5007 39.5003C59.6415 39.6411 59.7472 39.8524 59.7472 40.0989C59.7472 40.3454 59.6415 40.5214 59.5007 40.6975C59.3246 40.8735 59.1486 40.944 58.9021 40.944C58.6556 40.944 58.4443 40.8383 58.3035 40.6975Z" fill="black"/>
<path fill-rule="evenodd" clip-rule="evenodd" d="M55.944 43.0567C55.768 42.9158 55.6623 42.7046 55.6623 42.4581C55.6623 42.2116 55.768 42.0355 55.944 41.8595C56.2962 41.5426 56.8595 41.5426 57.2469 41.8595C57.4229 42.0003 57.5286 42.2116 57.5286 42.4581C57.5286 42.7046 57.4229 42.9158 57.2469 43.0567C57.0708 43.2327 56.8243 43.3032 56.6131 43.3032C56.3666 43.3032 56.1553 43.268 55.944 43.0567Z" fill="black"/>
<path fill-rule="evenodd" clip-rule="evenodd" d="M53.6907 45.4159C53.5147 45.275 53.4442 45.0638 53.4442 44.8173C53.4442 44.5708 53.5499 44.3947 53.6907 44.2187C54.0076 43.9018 54.571 43.9018 54.8879 44.2187C55.064 44.3595 55.1344 44.5708 55.1344 44.8173C55.1344 45.0638 55.0288 45.275 54.8879 45.4159C54.7471 45.5919 54.5358 45.6624 54.2893 45.6624C54.078 45.6976 53.8316 45.6272 53.6907 45.4159Z" fill="black"/>
<path fill-rule="evenodd" clip-rule="evenodd" d="M50.9794 47.1765C50.9794 46.93 51.085 46.7539 51.2259 46.5779C51.5428 46.261 52.1062 46.261 52.4231 46.5779C52.5991 46.7539 52.6696 46.93 52.6696 47.1765C52.6696 47.423 52.5639 47.599 52.4231 47.7751C52.2822 47.9159 52.071 48.0216 51.8245 48.0216C51.578 48.0216 51.4019 47.9159 51.2259 47.7751C51.0498 47.6342 50.9794 47.423 50.9794 47.1765Z" fill="black"/>
<path fill-rule="evenodd" clip-rule="evenodd" d="M46.5776 52.3879C46.4368 52.247 46.3312 52.0357 46.3312 51.7893C46.3312 51.5428 46.4368 51.3667 46.5776 51.1907C46.8945 50.8738 47.4579 50.8738 47.7748 51.1907C47.9509 51.3667 48.0213 51.5428 48.0213 51.7893C48.0213 52.0357 47.9157 52.2118 47.7748 52.3879C47.634 52.5639 47.4227 52.6344 47.1762 52.6344C46.965 52.6696 46.7537 52.5991 46.5776 52.3879Z" fill="black"/>
<path fill-rule="evenodd" clip-rule="evenodd" d="M44.148 54.7471C43.972 54.6062 43.8663 54.395 43.8663 54.1485C43.8663 53.902 43.972 53.7259 44.148 53.5499C44.5001 53.233 45.0635 53.233 45.4509 53.5499C45.6269 53.7259 45.7326 53.902 45.7326 54.1485C45.7326 54.395 45.6269 54.571 45.4509 54.7471C45.2748 54.9231 45.0283 54.9936 44.817 54.9936C44.5353 55.0288 44.3241 54.9231 44.148 54.7471Z" fill="black"/>
<path fill-rule="evenodd" clip-rule="evenodd" d="M41.8595 57.1415C41.7186 57.0006 41.613 56.7894 41.613 56.5429C41.613 56.2964 41.7186 56.0851 41.8595 55.9443C42.1764 55.6274 42.7398 55.6274 43.0567 55.9443C43.1975 56.0851 43.3032 56.2964 43.3032 56.5429C43.3032 56.7894 43.1975 56.9654 43.0567 57.1415C42.8806 57.3176 42.7046 57.388 42.4581 57.388C42.2116 57.388 42.0707 57.2823 41.8595 57.1415Z" fill="black"/>
<path fill-rule="evenodd" clip-rule="evenodd" d="M39.5 59.5007C39.324 59.3598 39.2535 59.1486 39.2535 58.9021C39.2535 58.6556 39.3592 58.4795 39.5 58.3035C39.8169 57.9866 40.3803 57.9866 40.6972 58.3035C40.8381 58.4795 40.9437 58.6556 40.9437 58.9021C40.9437 59.1486 40.8381 59.3598 40.6972 59.5007C40.5212 59.6768 40.3451 59.7472 40.0986 59.7472C39.8874 59.7472 39.6409 59.6768 39.5 59.5007Z" fill="black"/>
<path fill-rule="evenodd" clip-rule="evenodd" d="M37.0704 61.8599C36.8943 61.7191 36.7887 61.5078 36.7887 61.2613C36.7887 61.0148 36.8943 60.8388 37.0704 60.6627C37.4225 60.3458 37.9859 60.3458 38.3028 60.6627C38.4789 60.8388 38.5845 61.0148 38.5845 61.2613C38.5845 61.5078 38.4789 61.7191 38.3028 61.8599C38.1268 62.0007 37.8803 62.1064 37.669 62.1064C37.4225 62.1064 37.2112 62.036 37.0704 61.8599Z" fill="black"/>
<path fill-rule="evenodd" clip-rule="evenodd" d="M34.7464 64.2191C34.5703 64.043 34.4999 63.867 34.4999 63.6205C34.4999 63.374 34.6056 63.198 34.7464 63.0219C35.0633 62.705 35.6267 62.705 35.9436 63.0219C36.1197 63.198 36.1901 63.374 36.1901 63.6205C36.1901 63.867 36.0845 64.043 35.9436 64.2191C35.8028 64.36 35.5915 64.4656 35.345 64.4656C35.1689 64.5008 34.9577 64.3952 34.7464 64.2191Z" fill="black"/>
<path fill-rule="evenodd" clip-rule="evenodd" d="M35.9436 35.9439C36.0845 35.7678 36.1901 35.5917 36.1901 35.3452C36.1901 35.0988 36.0845 34.9227 35.9436 34.7466C35.6267 34.4297 35.0633 34.4297 34.7464 34.7466C34.5703 34.9227 34.4999 35.0988 34.4999 35.3452C34.4999 35.5917 34.6056 35.7678 34.7464 35.9439C34.8872 36.0847 35.0985 36.1903 35.345 36.1903C35.5915 36.2256 35.8028 36.1551 35.9436 35.9439Z" fill="black"/>
<path fill-rule="evenodd" clip-rule="evenodd" d="M38.3031 38.3735C38.4791 38.1974 38.5848 38.0214 38.5848 37.7749C38.5848 37.5284 38.4791 37.3523 38.3031 37.1763C37.9509 36.8594 37.3875 36.8594 37.0002 37.1763C36.8242 37.3523 36.7185 37.5284 36.7185 37.7749C36.7185 38.0214 36.8242 38.1974 37.0002 38.3735C37.1763 38.5143 37.4228 38.62 37.634 38.62C37.8805 38.5848 38.127 38.5143 38.3031 38.3735Z" fill="black"/>
<path fill-rule="evenodd" clip-rule="evenodd" d="M40.6972 40.6975C40.8381 40.5566 40.9437 40.3454 40.9437 40.0989C40.9437 39.8524 40.8381 39.6763 40.6972 39.5003C40.3803 39.1834 39.8169 39.1834 39.5 39.5003C39.3592 39.6411 39.2535 39.8524 39.2535 40.0989C39.2535 40.3454 39.3592 40.5214 39.5 40.6975C39.6761 40.8735 39.8521 40.944 40.0986 40.944C40.3099 40.944 40.5212 40.8383 40.6972 40.6975Z" fill="black"/>
<path fill-rule="evenodd" clip-rule="evenodd" d="M43.0567 43.0567C43.1975 42.9158 43.3032 42.7046 43.3032 42.4581C43.3032 42.2116 43.1975 42.0355 43.0567 41.8595C42.7398 41.5426 42.1764 41.5426 41.8595 41.8595C41.7186 42.0003 41.613 42.2116 41.613 42.4581C41.613 42.7046 41.7186 42.9158 41.8595 43.0567C42.0355 43.2327 42.2116 43.3032 42.4581 43.3032C42.6693 43.3032 42.8806 43.268 43.0567 43.0567Z" fill="black"/>
<path fill-rule="evenodd" clip-rule="evenodd" d="M45.3804 45.4159C45.5565 45.275 45.6621 45.0638 45.6621 44.8173C45.6621 44.5708 45.5565 44.3947 45.3804 44.2187C45.0635 43.9018 44.4649 43.9018 44.148 44.2187C43.972 44.3595 43.8663 44.5708 43.8663 44.8173C43.8663 45.0638 43.972 45.275 44.148 45.4159C44.3241 45.5919 44.5706 45.6624 44.7818 45.6624C44.9931 45.6976 45.2396 45.6272 45.3804 45.4159Z" fill="black"/>
<path fill-rule="evenodd" clip-rule="evenodd" d="M48.0213 47.1765C48.0213 46.93 47.9157 46.7539 47.7748 46.5779C47.4579 46.261 46.8945 46.261 46.5776 46.5779C46.4016 46.7539 46.3312 46.93 46.3312 47.1765C46.3312 47.423 46.4368 47.599 46.5776 47.7751C46.7185 47.9159 46.9298 48.0216 47.1762 48.0216C47.4227 48.0216 47.5988 47.9159 47.7748 47.7751C47.9509 47.6342 48.0213 47.423 48.0213 47.1765Z" fill="black"/>
<path fill-rule="evenodd" clip-rule="evenodd" d="M50.1343 50.1695C50.3104 49.9934 50.3808 49.8174 50.3808 49.5709C50.3808 49.3244 50.2751 49.1484 50.1343 48.9723C49.8174 48.6554 49.254 48.6554 48.9371 48.9723C48.761 49.1484 48.6906 49.3244 48.6906 49.5709C48.6906 49.8174 48.7962 49.9934 48.9371 50.1695C49.0779 50.3104 49.2892 50.416 49.5357 50.416C49.7822 50.416 49.9934 50.3104 50.1343 50.1695Z" fill="black"/>
<path fill-rule="evenodd" clip-rule="evenodd" d="M52.4935 52.3879C52.6696 52.247 52.7752 52.0357 52.7752 51.7893C52.7752 51.5428 52.6696 51.3667 52.4935 51.1907C52.1414 50.8738 51.578 50.8738 51.2611 51.1907C51.085 51.3667 50.9794 51.5428 50.9794 51.7893C50.9794 52.0357 51.085 52.2118 51.2611 52.3879C51.4371 52.5639 51.6836 52.6344 51.8949 52.6344C52.071 52.6696 52.3174 52.5991 52.4935 52.3879Z" fill="black"/>
<path fill-rule="evenodd" clip-rule="evenodd" d="M54.8879 54.7471C55.0288 54.6062 55.1344 54.395 55.1344 54.1485C55.1344 53.902 55.0288 53.7259 54.8879 53.5499C54.571 53.233 54.0076 53.233 53.6907 53.5499C53.5499 53.7259 53.4442 53.902 53.4442 54.1485C53.4442 54.395 53.5499 54.571 53.6907 54.7471C53.8668 54.9231 54.0428 54.9936 54.2893 54.9936C54.4654 55.0288 54.7119 54.9231 54.8879 54.7471Z" fill="black"/>
<path fill-rule="evenodd" clip-rule="evenodd" d="M57.2469 57.1415C57.3877 57.0006 57.4934 56.7894 57.4934 56.5429C57.4934 56.2964 57.3877 56.0851 57.2469 55.9443C56.93 55.6274 56.3666 55.6274 56.0497 55.9443C55.9088 56.0851 55.8032 56.2964 55.8032 56.5429C55.8032 56.7894 55.9088 56.9654 56.0497 57.1415C56.2257 57.3176 56.4018 57.388 56.6483 57.388C56.8948 57.388 57.0708 57.2823 57.2469 57.1415Z" fill="black"/>
<path fill-rule="evenodd" clip-rule="evenodd" d="M59.4655 59.5007C59.6415 59.3598 59.712 59.1486 59.712 58.9021C59.712 58.6556 59.6063 58.4795 59.4655 58.3035C59.1486 57.9866 58.5852 57.9866 58.2683 58.3035C58.1274 58.4795 58.0218 58.6556 58.0218 58.9021C58.0218 59.1486 58.1274 59.3598 58.2683 59.5007C58.4443 59.6768 58.6204 59.7472 58.8669 59.7472C59.0782 59.7472 59.3246 59.6768 59.4655 59.5007Z" fill="black"/>
<path fill-rule="evenodd" clip-rule="evenodd" d="M61.9655 61.8599C62.1416 61.7191 62.212 61.5078 62.212 61.2613C62.212 61.0148 62.1064 60.8388 61.9655 60.6627C61.6486 60.3458 61.0852 60.3458 60.7683 60.6627C60.5923 60.8388 60.5218 61.0148 60.5218 61.2613C60.5218 61.5078 60.6275 61.7191 60.7683 61.8599C60.9092 62.0007 61.1204 62.1064 61.3669 62.1064C61.6134 62.1064 61.8247 62.036 61.9655 61.8599Z" fill="black"/>
<path fill-rule="evenodd" clip-rule="evenodd" d="M64.3247 64.2191C64.5008 64.043 64.6064 63.867 64.6064 63.6205C64.6064 63.374 64.5008 63.198 64.3247 63.0219C63.9726 62.705 63.4092 62.705 63.0923 63.0219C62.9163 63.198 62.8106 63.374 62.8106 63.6205C62.8106 63.867 62.9163 64.043 63.0923 64.2191C63.2684 64.36 63.5149 64.4656 63.7261 64.4656C63.9022 64.5008 64.1135 64.3952 64.3247 64.2191Z" fill="black"/>
<path fill-rule="evenodd" clip-rule="evenodd" d="M41.5426 36.6129C43.937 35.0283 46.5779 34.2889 49.5005 34.2537C52.3527 34.2537 54.9936 35.0283 57.4584 36.6129L62.5289 31.5424C58.55 28.5141 54.2541 27 49.5005 27C44.7469 27 40.3806 28.5141 36.5072 31.5424L41.5426 36.6129Z" fill="black"/>
<path fill-rule="evenodd" clip-rule="evenodd" d="M36.472 57.4232C34.8523 54.9583 34.0776 52.3527 34.0776 49.5357C34.0776 46.6835 34.8523 44.0426 36.472 41.6482L31.4367 36.6129C28.4789 40.4862 27 44.7821 27 49.5709C27 54.2893 28.4789 58.6204 31.4719 62.5641L36.472 57.4232Z" fill="black"/>
<path fill-rule="evenodd" clip-rule="evenodd" d="M57.4229 62.4585C55.0285 64.0783 52.3876 64.9233 49.5354 64.9586C46.6129 64.9586 43.9367 64.1839 41.5423 62.4937L36.4718 67.529C40.3803 70.5925 44.7466 72.1066 49.5354 72.0714C54.2891 72.0362 58.5849 70.4868 62.4583 67.529L57.4229 62.4585Z" fill="black"/>
<path fill-rule="evenodd" clip-rule="evenodd" d="M62.3881 41.5778C64.0078 44.0426 64.8529 46.7187 64.7825 49.6061C64.7473 52.4231 63.9374 54.9936 62.3881 57.3528L67.4586 62.3881C70.4516 58.5148 72.001 54.2189 72.001 49.5005C72.0362 44.7116 70.5221 40.3454 67.4586 36.4368L62.3881 41.5778Z" fill="black"/>
<path fill-rule="evenodd" clip-rule="evenodd" d="M67.6696 64.043C69.6063 64.043 71.2261 65.6276 71.2261 67.5995C71.2261 69.5361 69.6415 71.1559 67.6696 71.1559C65.733 71.1559 64.1132 69.5713 64.1132 67.5995C64.1132 65.6276 65.6978 64.043 67.6696 64.043Z" fill="black"/>
<path fill-rule="evenodd" clip-rule="evenodd" d="M31.4015 64.043C33.3382 64.043 34.9227 65.6276 34.9227 67.5995C34.9227 69.5361 33.3382 71.1559 31.4015 71.1559C29.4648 71.1559 27.8803 69.5713 27.8803 67.5995C27.8803 65.6276 29.4648 64.043 31.4015 64.043Z" fill="black"/>
<path fill-rule="evenodd" clip-rule="evenodd" d="M67.7403 27.7747C69.677 27.7747 71.2615 29.3592 71.2615 31.3311C71.2615 33.303 69.677 34.8875 67.7403 34.8875C65.8036 34.8875 64.2191 33.303 64.2191 31.3311C64.2191 29.3592 65.8036 27.7747 67.7403 27.7747Z" fill="black"/>
<path fill-rule="evenodd" clip-rule="evenodd" d="M31.3311 27.7747C33.2677 27.7747 34.8875 29.3592 34.8875 31.2959C34.8875 33.2325 33.303 34.8171 31.3311 34.8171C29.3944 34.8171 27.7747 33.2325 27.7747 31.2959C27.7747 29.3592 29.3592 27.7747 31.3311 27.7747Z" fill="black"/>
</svg>
