<svg width="100" height="100" viewBox="0 0 100 100" fill="none" xmlns="http://www.w3.org/2000/svg">
<title>Flow Logo</title>
<path d="M65.9125 43.1935H55.8075V53.2985H65.9125V43.1935Z" fill="black"/>
<path d="M45.7016 57.0968C45.7016 59.1751 43.9816 60.8951 41.9033 60.8951C39.825 60.8951 38.105 59.1751 38.105 57.0968C38.105 55.0185 39.825 53.2985 41.9033 53.2985H45.7016V43.1935H41.9033C34.235 43.1935 28 49.4285 28 57.0968C28 64.7651 34.235 71.0001 41.9033 71.0001C49.5716 71.0001 55.8066 64.7651 55.8066 57.0968L55.8075 53.2985H45.7016V57.0968Z" fill="black"/>
<path d="M59.6051 38.105H71.0001V28H59.6051C51.9367 28 45.7018 34.235 45.7018 41.9033L45.7016 43.1935H55.8075L55.8067 41.9033C55.8067 39.825 57.5267 38.105 59.6051 38.105Z" fill="black"/>
</svg>
