<svg width="100" height="100" viewBox="0 0 100 100" fill="none" xmlns="http://www.w3.org/2000/svg">
<title>Fantom Logo</title>
<path fill-rule="evenodd" clip-rule="evenodd" d="M52.8 40.975L62.7 35.2V46.75L52.8 40.975ZM62.7 65.725L49.5 73.425L36.3 65.725V52.25L49.5 59.95L62.7 52.25V65.725ZM36.3 35.2L46.2 40.975L36.3 46.75V35.2ZM51.15 43.725L61.05 49.5L51.15 55.275V43.725ZM47.85 55.275L37.95 49.5L47.85 43.725V55.275ZM61.05 32.45L49.5 39.05L37.95 32.45L49.5 25.575L61.05 32.45ZM33 31.35V67.375L49.5 76.725L66 67.375V31.35L49.5 22L33 31.35Z" fill="black"/>
</svg>
