<svg width="100" height="100" viewBox="0 0 100 100" fill="none" xmlns="http://www.w3.org/2000/svg">
<title>Internet Computer Protocol Logo</title>
<path d="M64.6735 35C61.3839 35 57.7817 36.7974 53.9822 40.3428C52.1893 42.0083 50.6103 43.8223 49.4589 45.2569C49.4589 45.2569 51.3011 47.3842 53.3242 49.6763C54.4263 48.2911 55.9888 46.4112 57.8146 44.7127C61.1865 41.5466 63.3906 40.9035 64.6571 40.9035C69.3942 40.9035 73.2431 44.8941 73.2431 49.8247C73.2431 54.7058 69.3942 58.6964 64.6571 58.7459C64.4268 58.7459 64.1636 58.7129 63.8347 58.647C65.2163 59.2901 66.7131 59.7518 68.1112 59.7518C76.7959 59.7518 78.5066 53.7329 78.6052 53.3041C78.852 52.1993 79 51.045 79 49.8577C78.9836 41.662 72.5687 35 64.6735 35Z" fill="black"/>
<path d="M34.3265 64.6494C37.6161 64.6494 41.2183 62.852 45.0178 59.3066C46.8107 57.6411 48.3897 55.8271 49.5411 54.3925C49.5411 54.3925 47.6989 52.2653 45.6758 49.9731C44.5737 51.3583 43.0112 53.2382 41.1854 54.9367C37.8135 58.0698 35.593 58.7459 34.3429 58.7459C29.6058 58.7459 25.7569 54.7553 25.7569 49.8247C25.7569 44.9436 29.6058 40.953 34.3429 40.9035C34.5732 40.9035 34.8364 40.9365 35.1653 41.0024C33.7837 40.3593 32.2869 39.8976 30.8888 39.8976C22.2041 39.8811 20.4934 45.9 20.3948 46.3453C20.148 47.4501 20 48.6044 20 49.7917C20 57.9874 26.4148 64.6494 34.3265 64.6494Z" fill="black"/>
<path fill-rule="evenodd" clip-rule="evenodd" d="M40.9387 44.8447C39.9847 43.9212 35.3463 40.1449 30.9052 40.013C22.9771 39.8151 20.6579 45.5867 20.4441 46.3288C21.9738 39.8646 27.632 35.033 34.3429 35C39.8202 35 45.3633 40.3923 49.4589 45.2569L49.4753 45.2404C49.4753 45.2404 51.3175 47.3677 53.3407 49.6598C53.3407 49.6598 55.6434 52.3807 58.0778 54.7718C59.0318 55.6952 63.6538 59.422 68.0948 59.5539C76.2367 59.7848 78.4901 53.6834 78.6052 53.2217C77.1084 59.7353 71.4338 64.5835 64.69 64.6164C59.2127 64.6164 53.6696 59.2241 49.5576 54.3595C49.5576 54.376 49.5411 54.376 49.5411 54.3925C49.5411 54.3925 47.6989 52.2653 45.6758 49.9731C45.6922 49.9731 43.3895 47.2357 40.9387 44.8447Z" fill="black"/>
</svg>
