<svg width="100" height="100" viewBox="0 0 100 100" fill="none" xmlns="http://www.w3.org/2000/svg">
<title>Polygon Logo</title>
<path d="M62.6162 41.7154C61.6841 41.1828 60.4856 41.1828 59.4204 41.7154L51.9634 46.1097L46.9034 48.906L39.5796 53.3003C38.6475 53.8329 37.4491 53.8329 36.3838 53.3003L30.658 49.8381C29.7258 49.3055 29.0601 48.2402 29.0601 47.0418V40.3838C29.0601 39.3185 29.5927 38.2533 30.658 37.5875L36.3838 34.2585C37.3159 33.7258 38.5144 33.7258 39.5796 34.2585L45.3055 37.7206C46.2376 38.2533 46.9034 39.3185 46.9034 40.517V44.9112L51.9634 41.9817V37.4543C51.9634 36.389 51.4308 35.3238 50.3655 34.658L39.7128 28.3995C38.7807 27.8668 37.5822 27.8668 36.517 28.3995L25.5979 34.7911C24.5326 35.3238 24 36.389 24 37.4543V49.9713C24 51.0366 24.5326 52.1018 25.5979 52.7676L36.3838 59.0261C37.3159 59.5587 38.5144 59.5587 39.5796 59.0261L46.9034 54.765L51.9634 51.8355L59.2872 47.5744C60.2193 47.0418 61.4178 47.0418 62.483 47.5744L68.2089 50.9034C69.141 51.436 69.8068 52.5013 69.8068 53.6997V60.3577C69.8068 61.423 69.2742 62.4882 68.2089 63.154L62.6162 66.483C61.6841 67.0157 60.4856 67.0157 59.4204 66.483L53.6945 63.154C52.7624 62.6214 52.0966 61.5561 52.0966 60.3577V56.0966L47.0366 59.0261V63.4204C47.0366 64.4856 47.5692 65.5509 48.6345 66.2167L59.4204 72.4752C60.3525 73.0078 61.5509 73.0078 62.6162 72.4752L73.4021 66.2167C74.3342 65.6841 75 64.6188 75 63.4204V50.7702C75 49.705 74.4674 48.6397 73.4021 47.9739L62.6162 41.7154Z" fill="black"/>
</svg>
