<svg width="100" height="100" viewBox="0 0 100 100" fill="none" xmlns="http://www.w3.org/2000/svg">
<title>Near Logo</title>
<path d="M62.1024 32.0453L53.7433 44.4505C53.1653 45.2953 54.2769 46.318 55.0772 45.6066L63.3029 38.448C63.5252 38.2702 63.8365 38.4035 63.8365 38.7148V61.0798C63.8365 61.391 63.4363 61.5244 63.2585 61.3021L38.3591 31.5117C37.5587 30.5336 36.4027 30 35.1133 30H34.224C31.9119 30 30 31.9119 30 34.2685V65.7484C30 68.105 31.9119 70.0169 34.2685 70.0169C35.7358 70.0169 37.1141 69.261 37.9144 67.9716L46.2735 55.5663C46.8515 54.7215 45.74 53.6989 44.9396 54.4103L36.7139 61.5244C36.4916 61.7023 36.1804 61.5689 36.1804 61.2576V38.9371C36.1804 38.6259 36.5806 38.4925 36.7584 38.7148L61.6578 68.5051C62.4581 69.4833 63.6586 70.0169 64.9036 70.0169H65.7929C68.1494 70.0169 70.0613 68.105 70.0613 65.7484V34.2685C70.0613 31.9119 68.1494 30 65.7929 30C64.2811 30 62.9028 30.7559 62.1024 32.0453Z" fill="black"/>
</svg>
