<svg width="100" height="100" viewBox="0 0 100 100" fill="none" xmlns="http://www.w3.org/2000/svg">
<title>Quant Logo</title>
<path d="M38.2647 28.9064L50.712 43.4884L59.067 38.5742C59.067 38.5742 48.9868 25.0955 46.2988 26.0482C43.7712 27.011 38.2647 28.9064 38.2647 28.9064Z" fill="black"/>
<path d="M59.3782 38.5743C59.3782 38.5743 61.2739 35.2448 62.2167 30.802C62.2167 30.802 71.675 34.6029 68.0441 44.1203L59.3782 38.5743Z" fill="black"/>
<path d="M68.044 44.1303L68.8364 54.119L72.4572 53.6476C72.4572 53.6476 73.4 53.3267 73.2496 51.5917C73.0891 49.6862 72.7782 45.7248 72.7782 45.7248C72.7782 45.7248 72.9386 44.7721 70.732 44.4612C68.044 43.9698 68.044 44.1303 68.044 44.1303Z" fill="black"/>
<path d="M68.8261 54.1187L61.5745 59.9856L64.8844 66.4842C64.8844 66.4842 65.6767 69.0215 68.0338 66.1633C70.2404 63.3051 71.1832 62.8337 71.0227 61.0887C70.8823 59.3437 70.4009 55.2219 68.8261 54.1187Z" fill="black"/>
<path d="M61.4245 59.976L51.4948 55.5332L42.8289 73.1338C42.8289 73.1338 42.197 74.3975 44.4036 74.5579C46.6102 74.8789 50.231 75.6711 52.1267 73.7656C54.0224 72.0307 61.4245 59.976 61.4245 59.976Z" fill="black"/>
<path d="M51.4943 55.3829L50.5515 43.6492L29.1174 45.0833C29.1174 45.0833 27.8536 45.2438 28.0141 47.6206C28.1746 50.7897 28.4855 54.2798 28.4855 54.2798C28.4855 54.2798 28.325 55.7039 31.1635 55.8643C34.002 56.0148 51.1834 56.0148 51.4943 55.3829Z" fill="black"/>
</svg>
