<svg width="100" height="100" viewBox="0 0 100 100" fill="none" xmlns="http://www.w3.org/2000/svg">
<title>Solana Logo</title>
<path d="M34.9861 58.7378C35.2456 58.4782 35.6024 58.3267 35.9808 58.3267H70.2951C70.9221 58.3267 71.2357 59.084 70.7924 59.5276L64.0139 66.311C63.7544 66.5706 63.3976 66.7221 63.0192 66.7221H28.7049C28.0779 66.7221 27.7643 65.9648 28.2076 65.5212L34.9861 58.7378Z" fill="black"/>
<path d="M34.9861 33.4111C35.2564 33.1515 35.6132 33 35.9808 33H70.2951C70.9221 33 71.2357 33.7573 70.7924 34.2009L64.0139 40.9842C63.7544 41.2439 63.3976 41.3954 63.0192 41.3954H28.7049C28.0779 41.3954 27.7643 40.638 28.2076 40.1945L34.9861 33.4111Z" fill="black"/>
<path d="M64.0139 45.9933C63.7544 45.7337 63.3976 45.5822 63.0192 45.5822H28.7049C28.0779 45.5822 27.7643 46.3395 28.2076 46.7831L34.9861 53.5665C35.2456 53.8261 35.6024 53.9776 35.9808 53.9776H70.2951C70.9221 53.9776 71.2357 53.2203 70.7924 52.7767L64.0139 45.9933Z" fill="black"/>
</svg>
