<svg width="100" height="100" viewBox="0 0 100 100" fill="none" xmlns="http://www.w3.org/2000/svg">
<title>Tron Logo</title>
<path d="M72.3743 42.5809C70.1056 40.4862 66.9672 37.2873 64.4111 35.0185L64.2599 34.9127C64.0082 34.7106 63.7245 34.5521 63.4205 34.4438C57.2571 33.2943 28.573 27.9326 28.0134 28.0006C27.8566 28.0226 27.7067 28.0795 27.5747 28.167L27.4311 28.2805C27.2541 28.4601 27.1198 28.6772 27.0378 28.9157L27 29.014V29.6341C30.2291 38.6258 42.9793 68.0813 45.49 74.9933C45.6413 75.4622 45.9287 76.3546 46.4656 76.3999H46.5866C46.874 76.3999 48.0991 74.7816 48.0991 74.7816C48.0991 74.7816 69.9997 48.2225 72.2155 45.3941C72.5023 45.0457 72.7556 44.671 72.9718 44.2749C73.027 43.965 73.0009 43.6461 72.8962 43.3492C72.7915 43.0523 72.6117 42.7877 72.3743 42.5809ZM53.7179 45.674L63.065 37.9225L68.5478 42.9742L53.7179 45.674ZM50.088 45.1673L33.9952 31.9785L60.0325 36.7806L50.088 45.1673ZM51.54 48.6233L68.0108 45.9689L49.1805 68.6561L51.54 48.6233ZM31.8097 33.2943L48.7419 47.6629L46.2917 68.6712L31.8097 33.2943Z" fill="black"/>
</svg>
