<svg width="100" height="100" viewBox="0 0 100 100" fill="none" xmlns="http://www.w3.org/2000/svg">
<title>Stellar Lumens Logo</title>
<path d="M32.7939 52.2433C32.6963 51.4989 32.6472 50.7489 32.6469 49.9982C32.6509 47.0026 33.4374 44.06 34.9285 41.4619C36.4196 38.8638 38.5635 36.7004 41.1481 35.1858C43.7326 33.6713 46.6679 32.8582 49.6633 32.8272C52.6587 32.7961 55.6103 33.5482 58.2256 35.0088L62.1572 33.0052C59.0231 30.7304 55.3211 29.3665 51.4603 29.0641C47.5995 28.7618 43.7303 29.5327 40.2802 31.2919C36.8302 33.051 33.9337 35.7298 31.911 39.0322C29.8882 42.3345 28.8178 46.1318 28.8182 50.0045C28.8182 50.5393 28.8385 51.0721 28.8791 51.6027C28.936 52.3542 28.7693 53.1057 28.4001 53.7627C28.0309 54.4197 27.4756 54.9528 26.8041 55.2949L25 56.2148V60.5056L74.641 35.2105V30.9218L32.7939 52.2433Z" fill="black"/>
<path d="M74.641 39.5035L25 64.786V69.0726L66.8576 47.7448C66.9552 48.4941 67.0043 49.249 67.0046 50.0046C67.0027 53.0037 66.2165 55.9501 64.7239 58.5513C63.2314 61.1526 61.0844 63.3182 58.4962 64.8333C55.9079 66.3483 52.9685 67.16 49.9695 67.1878C46.9706 67.2156 44.0166 66.4586 41.4007 64.9919L41.1907 65.1032L37.4817 66.9934C40.615 69.2682 44.3163 70.6326 48.1765 70.9357C52.0367 71.2388 55.9056 70.4688 59.3556 68.7109C62.8056 66.9529 65.7025 64.2755 67.7262 60.9743C69.7499 57.6731 70.8215 53.8767 70.8228 50.0046C70.8228 49.4649 70.8018 48.9251 70.7619 48.3917C70.7051 47.6404 70.8716 46.8892 71.2404 46.2323C71.6092 45.5754 72.1639 45.0421 72.8348 44.6995L74.641 43.7796V39.5035Z" fill="black"/>
</svg>
