<svg width="100" height="100" viewBox="0 0 100 100" fill="none" xmlns="http://www.w3.org/2000/svg">
<title>Tezoz Logo</title>
<path d="M53.7284 74.999C50.159 74.999 47.5538 74.1397 45.9126 72.4209C44.3923 70.966 43.51 68.9687 43.4587 66.8655C43.4402 66.2265 43.5884 65.5938 43.8886 65.0294C44.1686 64.5417 44.5731 64.137 45.0607 63.8567C45.6275 63.5742 46.2523 63.4271 46.8857 63.4271C47.5191 63.4271 48.1438 63.5742 48.7107 63.8567C49.1975 64.1359 49.6001 64.541 49.8762 65.0294C50.1851 65.591 50.3388 66.2248 50.3215 66.8655C50.3534 67.6306 50.1338 68.3852 49.6963 69.0139C49.3316 69.5271 48.8104 69.9083 48.2108 70.1005C48.7972 70.8468 49.6269 71.3638 50.5554 71.5616C51.5943 71.8631 52.6702 72.0182 53.7519 72.0223C55.1841 72.0348 56.5869 71.6156 57.7771 70.8193C59.0119 69.9473 59.9327 68.7009 60.4031 67.2647C60.9994 65.5554 61.2904 63.7547 61.2628 61.9447C61.3109 60.0576 60.9924 58.1792 60.3249 56.4134C59.8229 55.0011 58.8698 53.7931 57.6129 52.9759C56.4446 52.2369 55.0884 51.8492 53.7058 51.8589C52.501 51.9609 51.3394 52.3551 50.3215 53.0073L47.812 54.265V53.0073L59.09 37.8842H43.4587V53.5776C43.4145 54.7101 43.7142 55.8294 44.3184 56.7885C44.6107 57.2064 45.0061 57.5417 45.4662 57.7621C45.9262 57.9824 46.4354 58.0803 46.9444 58.0461C47.8849 58.0271 48.7944 57.7067 49.539 57.1321C50.383 56.5139 51.1175 55.7586 51.7119 54.8977C51.7654 54.7468 51.864 54.6159 51.9945 54.523C52.0992 54.4325 52.2329 54.3826 52.3713 54.3824C52.6428 54.4071 52.8998 54.5164 53.106 54.6947C53.3673 54.9864 53.5094 55.3656 53.5045 55.7571C53.4743 56.0202 53.4273 56.2812 53.3638 56.5383C52.8086 57.8818 51.8778 59.0368 50.6829 59.8653C49.5731 60.6159 48.2624 61.0139 46.9224 61.0071C43.5381 61.0071 41.1936 60.3405 39.8888 59.0072C39.2182 58.2703 38.7013 57.407 38.3685 56.468C38.0356 55.5289 37.8935 54.533 37.9505 53.5384V37.8842H30V34.9684H37.9875V28.3201L36.1588 26.4909V25H41.4654L43.4587 26.0314V34.9684L64.1074 34.9056L66.1631 36.9681L53.5017 49.6856C54.2666 49.3782 55.0722 49.1834 55.8931 49.1075C57.518 49.1786 59.1033 49.631 60.5209 50.4279C62.1624 51.2079 63.5458 52.4419 64.5071 53.9837C65.3684 55.289 65.9781 56.7436 66.3047 58.2727C66.5733 59.4789 66.7173 60.7094 66.7346 61.945C66.743 64.3029 66.2081 66.6312 65.1715 68.7493C64.1884 70.8004 62.5339 72.4542 60.4819 73.4369C58.3815 74.4715 56.07 75.0061 53.7284 74.999Z" fill="black"/>
</svg>
