<svg width="45" height="45" viewBox="0 0 45 45" fill="none" xmlns="http://www.w3.org/2000/svg">
<circle cx="22.7284" cy="22.7285" r="6.2731" stroke="black" stroke-width="2"/>
<rect x="10.2856" y="12.2143" width="2" height="5.45482" rx="1" transform="rotate(-45 10.2856 12.2143)" fill="black"/>
<rect x="28.9285" y="30.8572" width="2" height="5.45482" rx="1" transform="rotate(-45 28.9285 30.8572)" fill="black"/>
<rect x="30.8572" y="16.0715" width="2" height="5.45482" rx="1" transform="rotate(-135 30.8572 16.0715)" fill="black"/>
<rect x="12.2144" y="34.7143" width="2" height="5.45482" rx="1" transform="rotate(-135 12.2144 34.7143)" fill="black"/>
<rect x="21.8193" y="6.36398" width="2" height="5.45482" rx="1" fill="black"/>
<rect x="21.8193" y="32.729" width="2" height="5.45482" rx="1" fill="black"/>
<rect x="33.6382" y="23.6376" width="2" height="5.45482" rx="1" transform="rotate(-90 33.6382 23.6376)" fill="black"/>
<rect x="7.27319" y="23.6376" width="2" height="5.45482" rx="1" transform="rotate(-90 7.27319 23.6376)" fill="black"/>
</svg>
